<mxfile host="app.diagrams.net" agent="Mozilla/5.0 (Windows NT 10.0; Win64; x64) AppleWebKit/537.36 (KHTML, like Gecko) Chrome/135.0.0.0 Safari/537.36" version="26.2.15">
  <diagram name="Trang-1" id="YhO6cILRCr32N4gR1WOu">
    <mxGraphModel dx="2053" dy="620" grid="1" gridSize="10" guides="1" tooltips="1" connect="1" arrows="1" fold="1" page="1" pageScale="1" pageWidth="827" pageHeight="1169" math="0" shadow="0">
      <root>
        <mxCell id="0" />
        <mxCell id="1" parent="0" />
        <mxCell id="awfQtvuQGuNagkUYhMvE-17" value="write &amp;lt;data&amp;gt; &amp;lt;destination&amp;gt; &amp;lt;offset&amp;gt;: ghi &amp;lt;data&amp;gt; vào thanh ghi &amp;lt;destination&amp;gt; ở vị trí &amp;lt;offset&amp;gt;" style="rounded=0;whiteSpace=wrap;html=1;strokeWidth=0;" vertex="1" parent="1">
          <mxGeometry x="-80" y="310" width="270" height="50" as="geometry" />
        </mxCell>
        <mxCell id="awfQtvuQGuNagkUYhMvE-14" value="free &amp;lt;arg&amp;gt;: gọi libfree để giải phóng vùng nhớ đã cấp phát cho thanh ghi &amp;lt;arg&amp;gt;" style="rounded=0;whiteSpace=wrap;html=1;strokeWidth=0;" vertex="1" parent="1">
          <mxGeometry x="579" y="240" width="221" height="50" as="geometry" />
        </mxCell>
        <mxCell id="awfQtvuQGuNagkUYhMvE-12" value="alloc &amp;lt;arg1&amp;gt; &amp;lt;arg2&amp;gt;: gọi liballoc để cấp phát lượng bộ nhớ &amp;lt;arg1&amp;gt; cho thanh ghi &amp;lt;arg2&amp;gt; và cập nhật kích thước pgtbl" style="rounded=0;whiteSpace=wrap;html=1;strokeWidth=0;" vertex="1" parent="1">
          <mxGeometry x="-80" y="190" width="270" height="50" as="geometry" />
        </mxCell>
        <mxCell id="awfQtvuQGuNagkUYhMvE-6" value="Số lượng nhiệm vụ mà một process phải làm" style="rounded=0;whiteSpace=wrap;html=1;strokeWidth=0;" vertex="1" parent="1">
          <mxGeometry x="540" y="80" width="270" height="50" as="geometry" />
        </mxCell>
        <mxCell id="awfQtvuQGuNagkUYhMvE-4" value="Độ ưu tiên của tiến trình (không cần thiết bởi vì chương trình thực thi theo cơ chế MLQ sched)" style="rounded=0;whiteSpace=wrap;html=1;strokeWidth=0;" vertex="1" parent="1">
          <mxGeometry x="-80" y="80" width="270" height="50" as="geometry" />
        </mxCell>
        <mxCell id="awfQtvuQGuNagkUYhMvE-2" value="" style="shape=image;verticalLabelPosition=bottom;labelBackgroundColor=default;verticalAlign=top;aspect=fixed;imageAspect=0;image=data:image/png,iVBORw0KGgoAAAANSUhEUgAAAUsAAAEGCAIAAABjEyB7AAAgAElEQVR4Ae2d/W8TSZrH98+431qJGBYaGM9kjgyKBy6CcSZKMmHCDiTBGbh4DTgJNsRrsjCAQ+jJZo008gh5lMhsMBnkKMgoMuJkCcmKzuKHVu4srXZ1uvt3TlXVXa5+sd3dttvt7idCuFxdXS/fqk9XdXX7eX7HwV8PKnDixIl/gT9QwIACv+vB4Q1V5oBwA2MbkiAFgPCevF4A4YCvQQWAcCDc4FCBZD2pABAOhPfkwIVKG1QACAfCDQ4VSNaTCgDhQHhPDlyotEEFgHAg3OBQgWQ9qQAQDoT35MCFShtUAAgHwg0OFUjWkwoA4UB4Tw5cqLRBBYBwINzgUIFkPakAEA6E9+TAhUobVAAIB8INDhVI1pMKWCT8m2+++ekv6xupv+r+W47He5Kb3qk0vJfek7R1o9IWCY/dvfP3f/7jf/7vf3X/vfuP97bBEg6Hf/7555mZGdtKbLGgwcHBU6dO6WbS4JAqPRDeDVh6skyLhKsGXBe/dprw0dHRjY2Ndl1Bvvzyy1gsduvWrc8++0wl2oULF+7evTs/P//JJ5+oDmm/AuE9SVs3Km2R8E99n168ePG7qSn67/Tp09qBqBsTj8cFQfjqq690jzaNbPH0pvnTBDMzMz///HM6nW7vGoGQfOPGDXYmHx4evnv3ri75tD5sAAjvBiw9WaZFwrWr9Kc/CewQbBBuEdEWT29QMfbQV199JQhCPB6fmZlJpVLtmsNJEYRnCrnqK1uNemEgvCdp60alLRJeb+Q1jRcEIS3/0ZmczpbpdPrx48c0k3A4LKdF8YQ6GkNOD4fDqVRqdHSU47jH+C8ej5M0NJ5kyJaysrJCAKZl1Qt0gnCO4wjV4XD4/Pnzd+/epbTXq4YqHgjvBiw9WabdhHMcp5qEWYQIwwRyNn50dPTevXtklKtOVxGeTqfjeCefzYrjOIJ3OBwmmTx+/JimVMGj+spWQ3Woxa/nzp27e/fuvXv3wuEwz/OmcgPCe5K2blTaIuHaVTq7qd54L12F6OPHjwmTZIhTYmlANfRVp7PJHj9+TNcFHMepDrGrA7oIV2Wu/QqEd2NYQpltU8Ai4dqdNrrl9t3U1NeBgBYVGsMiqlp4s6treojlX7sEaIAxPUSyohM4x3FdJxxW6W0bwpBRQwUsEk5xtRDQEs6yp8pwdHQ0lUqxK2r29MYTtWMJV22tqb6qFND9Cqv0hqMaDtYUsEi47ir97//8R+zuHd0RyUaqECXbY2wCbZg9hQ2bIpxdpZMLh2p1oC2X3MC3dy8dnpbVRh+EOq+ARcJ131r96S/r33zzjS4nbCSdWkkk2TCn0/jMzEw0GiXo0kiWau3pdM9cdbFgU6pK6dZOG7zx0vkhDSUoFLBIOEus2TC9waa7YuxTMYorG0lT0lvodDpd72kZrQ9LOLlk0CdtCwsL3Xpa1uDV1AaHaKNIAFbpilEMX+or0AXCVYO1K1+N77R1pXpNCwXC6w9pOKJQwKOE02dg7GswdIY3cn/eFMKOJgDCFaMYvtRXwCuEh8Nhyi3ZZmM33jpKYycyB8LrD2k4olDAK4Sr5uqexpvjwDOhYhDDlwYKeIXwTkykXcwT5vAGYxoOsQoA4V3k1HrRQDg7iCHcQAEg3DpmXTwTCG8wpuEQqwAQ3kVOrRcNhLODGMINFADCrWPWxTOB8AZjGg6xCgDhXeTUetFAODuIIdxAASDcOmZdPBMIbzCm4RCrABDeRU6tFw2Es4MYwg0UAMKtY9bFM4HwBmMaDrEKAOFd5NR60UA4O4gh3EABINw6Zl088wT8gQLGFADCu8ip9aKNdS6kAgVOAOHWMYMzQQHnKwCEO7+PoIaggHUFgHDr2sGZoIDzFQDCnd9HUENQwLoCQLh17eBMUMD5CgDhzu8jqCEoYF2BXiW8v7//6NGj1tvd4TOPHz/e4RIge1DAkAK9SngsFnvx4sX4+LihVtqb6OrVqy9fvpybm7Nc7OCXXz55uraR+qvuvwc//njq1CnLmcOJnlLACuGDg4NbW1vpdLqLSp04cWJjY+Nvf/ubAyHv7+//8ccff/vtN8uQfzc19V/V/2bdubLhg8p/njt3zh7xFxcXd3d3g8GgPcVBKW1XoFcJJ/ZGNzY2Xrx4MTo62nZdWsyQQJ7L5WZnZ1vMqrun20B4Op1eXV3tbjNdXLoVwm2QY3V1dWtra3BwsHFZZCZ3H+THjh37dnKSddhsfNJeXFzc2dkJNHTw3EBVg8o3yMHgIbISfIP/gHCDollI1tuE05l8a2vr66+/ttD+jp5CZvKXL19+//33pgrSrtL/9vKlwRx6hXByKQkEAltbW0C4wc61kMwK4eTqS3qFhtPpNLkes3Mv8RO0uLhIDrF3dIuLi2zKQCCws7OzuLjIXtrfvHmztbXVtFUnTpwQBGFzc1N3zicj/urVqzs7O6oZg5S1vr6+tbX15s2bxcVFjuNITbQVJtVYXV0lh968eWNkJ6K/v//evXvb29v23ErQXnjz5g2dydkWsZoHg8Hd3V3SnK2trbGxMaIDjRkcHGSvFyRM1u0kDVGMKMOWQv1DNe07On6apoQE1hRoD+EqPOglmQw4SsLq6iqFvB7hpBmm1oqE8BcvXuguZcn1hQ53MqzZyxOtEsdx7FGO48i5dByn02maTyAQ+Omnn5qKTgh/9erV1NRU08RtScAySS9YbBMI5PSSynHc4ODg+vo6uT6qlGdzI2rQa8Tq6iqrxs7ODu13ch2k/d6gXUB4A3Hacqg9hLN9yQ6RdDpNBwQZSXRJ1i7CCd4vX76st6mu3SuiNSTDi608mXxYZWlMMBjc2dkxtatM8P7tt99++OEHNs+mYe0q3fheOsskx3Grq6tsA2kraEBVGSoOiWdzUynJXiNUZ3EcR3VT5a/6CoSrBGn71/YQTi/eZEhRqrXdTGPaQnhTvMk8TKcaIh8dtarhRb7S6Y4mJs1RVbhpT1jGm+M47U4bu+s2Nj7W399frwK0dSQBu24nS2u6ZlGtsEh6FatsbmxYtTrQ7ofTjq5XTxKv6oLGieGoBQV6mHAjeHeL8FbwttCL7CkqDrXssYkJYOyeAhDO6uOCsK2Es+s61UAkN8B0/lSNM63QBvHWJZxOL9oJhB6iJdKYestampIGWse73ir96U8CLaVeQCVsUyVVEqnSs7mxYe0cThdu9HaMvTuoV1ttF9RLCfHWFOg44W/evKFreNVOFd2boTMJJVw1mLRti8ViL1++vHjxovaQKka1P8RunmmHF7nQ0Aqr7jxV9a+30zY3N7ezs3P9+nVVTYx/rffWqpGnbqorkapFdIMwGAzev3+fVIlVmw2r4FcdYq/XqlJgp814X3c6ZccJJ3MguQPU3g/TO0MyeijhlPl6T8v6+/sNvptNcr5//z4pi27706mG8ky0JoNVt8JkA0mbj7aTPvvsM22kbTHkBpuqzbaI3oSzkTQl1YQ8p9R9WkbfpWEJp48hiDhkew/mcNt6vEFBVghvkJ3qEF3iquLt/Kqaeews2stlOaHrvaw/bTsQTqWAQNsUoNM7CdBVDwkYmdvbVhXPZwSEe34ItEOAYDD47NkzkhO5w2I33tpRAuRhUQEg3KJwcBqrgGquBrxZcbob7izh3W0blA4KgAJAOIwBUMDNCgDhbu5daBsoAITDGAAF3KwAEO7m3oW2gQJAOIwBUMDNCgDhbu5daBsoAITDGAAF3KwAEO7m3oW2gQJAOIwBUMDNCjiY8P6Tn5+/Mb+8FltJBLriw2dgTnhdqhxW0d+hWN7PxMd51Vjgx+OZ/bIopamUXgvT6iSqM+p99c09yhbLopRVtZK9Vi8lxIMCJhRwJOH9A2cml279aS22Qv51g/Br6ZKI2Wb/EwvJs4y43wtFbZpyNmQW8kA094EtploFwhmZIdiKAk4k/GhgGbGdeHh1bPLbhS7N4Xwo+6FceBadGuA4jvfPpwjMpV8mZLlHUu8RluJ+KjTEK9OYMpw8lS7hfD7kU0vTw6g4+AMF2qaAEwnnjl+6fG3mi99zHDcQiHSJcI3C/g0M4tukdORatlKtVg8UMzb/5zya1EtpehnQZKOOIKeIb5Mj6iPwHRRogwKOJLzWLscRXnkRIrUjwDNTOu+fFwplstguyJeBWkvqheK7IrokTNY7DvGgQEsKAOEG5SNr8kruppR+brNSrYr5BPrqCyZz79k7cuP7ZNOZcrV6kEvibTbpXlwsF59HYUo32DGQrLECQHhjfchRPrSJZufyZm0TDRNeyS7HM/totY7+DiuF9VBq39Q+2Vz2QDpb9SHuxs1u2BlpCaTxmgJAeNMe56c30C6b6lYZEy5TeVgpPo9PYCKTb9GlIGPUa7hEeGU/E58d9uFNvelEDi/2iwK7b9+0mpAAFNBTAAjXU6UW54vg2VvcEwjA9MjEL3jjrSqWtpNztQ3wEJ6Tjd+HY8IPstLNvZx79JUID8xkMeCzJQWA8Pry8RPCHrq7ruw+0Lkrvpkje+lzTAb8Eo40sZfOC2hVX0oFmFw4/gHafjN+M8+eC2FQQKEAEK6Qo/ZlIJLBr7yUNyNo8azzJy+w9wTl83Cx8MSvk7xOlH+9iB6ql7Lx73A5A8OhZ/jReyUXqXMKRIMCxhVwJOGnZualt9noa21S4PKQ8aa1lFJxmy3fbpPPwhMpZ34+Kz0dYxKobtebV4IP6eRSLWfnYaOtuXiQoqkCQLi+REYIx8/JhHxJ3ku3/JRL+QJ85V3uwRXAW79fINasAo4k3GwjID0oAArUUQAIryMMRIMCrlAACHdFN0IjQIE6CgDhdYSBaFDAFQoA4a7oRmgEKFBHASC8jjAQDQq4QgEg3BXdCI0ABeooAITXEQaiQQFXKACEu6IboRGgQB0FgPA6wkA0KOAKBYBwV3QjNAIUqKMAEF5HGIgGBVyhABDuim6ERoACdRQAwusIA9GggCsUAMJb6MYnBeaH4VX6u3EmR6WhxYMsaxCGSQZBUKBTCjiV8P4B/6VYGDktW4v9KXl99hJ2kNApFSzm22OE++bWFT9mzyyrbM9xHD8Rf14sy4ahK6W8oPmlui/Yjp/EIzcyydw7/NN66mTCYjfAaY0UcCThpyav3lFbd4nduTF4pFFLunkMo643h9NKSRYXuzeHz+n7YXvEGpyaEt7JcNcWJwprM5IhutpRFDJp1oafWEjJriNwRkA4HSYdCDiS8L7TgT8mLp73H+1HLe77dHIaAz/39ckOKNCOLHuAcGTyvbyXimJrcPxQKEVgZoxGjhC3TR+LqXk/8sPGpJH8sPFRbGiyWt6OY3duvinJ8LOYTxg2SsM/wJ6fqtWDgvArslFXBcLbMQbr5eFIwjWV7RteQsv1WYVFUk2qNkfw45HU61JFntXEg1J+fU7fKmOLhLNWnKpVsVwQgtpy8Br7QK5NpZjVrrFNCXA2hc1BU8PPZMugorAPJ9EoOV3icTPFfYG1PDv1HNmqE3fjhgvnH7wuF4iSOEMg3LB0VhL2EuHh8dNWmmjxHOUmmbwuLW2ww1vOuhXCA8mCjK1cCEKm8IQtaCT5VpuIwilXw9QnIZyaaidfmSmdHwoJe5KlSXIDgq24S46ccFG+qUS2SKzUWdtEBMJNdZmlxD1B+LFzP6zFVu6PaSc2S202dtJc5n05/yw6fQGXyvslI8cMA7V8rBPuJ+iK71IhXBA/NB1/hbkS83RanCLeF8RS7lEILaA533A4mXufM+7/sFZVOUTW5JVt2WQzdqUqTcUDc8lthff0yibaQMDuXMh8ju+lFf6YLF1ugHC5Ozr32QOEnxxLxFbWro/ZOYHrCp5ED8d0JyvLhJOZs5KLKm5jiRdEMbdEqqG3ftatoOFIyQ50mXGNjAmvvIjHnxcrh9JiorInhDbQrTJDeEEICvkP8oLiYymbiOcQ6kC4YfXtTeh0wo8PLy2srC3MBuzfR+evPMjul0V5uEujvr2EszMn0/HElrO8OY+vLOXMNJOglSB/JYX9sBWS7LYGcYcu3ycgP2rj+KqDL17lX1HheA6XU3wsy7sS5AIEhLfSJx0818mE9386tnx7Ze3WldGjfR2UQD/ra8jtr85fJwh/FVXVQYdw3bsD1WkGvvpuZsuH1erHgkAApqdMpiU/bO9zSWafL/QC3WcXHqF02NU5drH6LFJ7ks4LaJa3dgGCVTrVv2MBpxLed9J/5WFsZS38h/P2z94cx+FdpSq9Pcb6d2CVTrhSOzCSfJVnr5Fuj+Y+an2bWRgR/MRTvKlXyT9gZ28ppwh+EqZ0liY9HpP20iUHTG+T7DN0cj9vZi+dqTkQzojRoaAjCe8/c+HfEd7Xx87YP3kToZN7aP6ubEfozlaW+Alv7xzOTWU+oILEfbrTFhL28Pb0h4z0FJrjpcmzUkgtTeP68P4r8ay5nTZf5DnePPuQjdQ8pSoGleTmpVIQlM/DRYr0WbLtL5Y2Vc/DldcFRa4NvwDhDeVpy0EnEk621tADcM0/2/yW+Z/oPcNS7LTpP06j+1Koe8gI1lnr1+5adZ2fVQ/LGdZvWSBZQNO46q+WSfOhoLzNVmREXzjR9aAmKm7XR/RkKW+GFBuFzWqjuJ9nq6J79WyWGxxvrAAQXk8fX+SZ4g3t1EIkU2L30ttDOMdx/BX0pre0pXcolukuF1s18laMvIctlos6b5Wz6VVhI4RzHMe+e4NrElWv5/mJ5YxCl6fTpvBW79gB4aqeavdXJxLe7jZCfqCAdxUAwr3b99ByLygAhHuhl6GN3lUACPdu30PLvaAAEO6FXoY2elcBINy7fQ8t94ICQLgXehna6F0FgHDv9j203AsKAOFe6GVoo3cVAMK92/fQci8oAIR7oZehjd5VAAj3bt9Dy72gABDuhV6GNnpXASC8hb5X/jhUNrrEZqj8/Rn8OpLVBsK2KOBQwo9+Pvnt/P3bCfwT8eWH4NWo9cGg/6ts+uNwUoBNXo00P0GtZ4i+9WZ7PgdnEh64rLH9AF6NWhyrBgi3x6uRP/6a2FhnfxpeLf/aPY9PLSrr7NOdSfj5i7dunBvw9WEbTn38ubGbaDK3zcCL6S7Dy3W9VTrNCS/Xu7pKx4Q3Mgtjk1cjjht5Uii/zyWxrShuYEprH56qBoHWFXAm4ep2HTkfi62sXRpSx3f0u8u8GjUjnGwZ2ODVSNtpxNSkVWNv2vwghlHA+YT3H/Fhz4Q3Z07aapZRuUkmryh716tRE8K74tVIGoiE8KJg1hwUM44hWE8B5xJ+ZrZmiXHhh8mT2A9pvWZ0IN5tXo0U9+GHolguZh8xjhZZ3wy2eTXC3SZ5LH4nsEaaO9ChHs2yNwiPrazdDgc/74rl9NrA6IC9dBu9GikIl5ck4l5ScoCICbfbqxHHccQxo9Kia01yCLWsgHMJl5vWf+TkucA1ZD49Fhy3c53uVq9GyLPhhenoL8i1UbVayd3ESiuNsdrk1SgQzSHPMmWFS2O54+GzLQo4n3DSzDNjt9diK5EzbWm0kUxc6tWIaTov7CPEpUcAtns14scFZAT+sJy9aatPWUYBTwR7hfDTowtrscSNQbs6xY1ejVTaSR5O8wkSb6tXI8l9mlhKs44fVBWEr+1QwPmE9x/5/Wn/5cTtlbWFP5xrR5MN5eE6r0Zsq3n/lWiK+E5iHBvb5dWIn/gxj1550XpHZOsI4TYp4EjChyJaf0a3w5ftfFrmNq9GnN7DP9UUapNXI7xhKW/1KT67+kZQm4ByXDaOJzyRvBVeGvu30+T9Nhv1c5dXIyXh4kGp8Jx4F1QqaodXIyBcqXmHvzmS8A63GbIHBbyjABDunb6GlnpRASDci70ObfaOAkC4d/oaWupFBYBwL/Y6tNk7CgDh3ulraKkXFQDCvdjr0GbvKACEe6evoaVeVAAI92KvQ5u9owAQ7p2+hpZ6UQEg3Iu9Dm32jgJAuHf6GlrqRQWAcC/2OrTZOwoA4d7pa2ipFxUAwpv3+sidTLGMjZqRXzPDz5ibawYpnKKA4wn/dGaeeDiaDXRFM8nWL2upwJGE8+PxzH5ZPMQVPayUXgtzA10RDAp1lgLOJrzv3MU7azHin7A7hPPYCLFY+jU67GBg/AlsF4m9DCETphlwBeYs2rpRGycTfuzM7MPYysOLX+NpvDuEY+NHYj7ejb4xUWYgWSiXco9CfuQ2xDeVwEaKq6JsZdFETpDUZQo4l/AjQ5GFlbXrY6e5U90mvM6yHJsuRN62fEGhIN+ol/eEaYV3Ht/cer4kO9sUywUhqDEerPLp+y4bH1dkYWHMEVuxlU2YxS2I56pTnEr4kfHpxFrs5uWTHNcFwpXuAVSLX+pjlBCe2ywwu3AorbgblwHV9aQrFh6xDnzm0iVVBniFfa2lcUYILz6VK9JSZnByDyvgTMIHAjfXYssRP3FjZP8cboJwjP9BQcC+cpEZcIS4tKrnE3nEbjkvedLl/aFHeZSgkovIY2bqlxI64106+h2e2wemJG8krfjx4qM5tGooCmflYuDTqwo4kfCTY4nYysPLQ8ekTrGf8NpowPfhjVbp1crug4naTDmdQQRLbrrjuyLa7/q+lh3HcXh2LWdmSeREuoSuCA9qOXAc50+9r2WiONnQl5HkW7FaFQtPJJdkhk6CRC5VwHmE48djCucHziacLto1I4TQrlrjS18Lj0jy+qaFq/QqoMm4UcRI9BV2BbYZUlw0Gp0Cx9ysgOMIxxN4za+wxjWCja7LUL83n8PrE67nhEDmvSOE8xPCHr4t2IxodvPcPIihbQ0UAMIbiNMi4Rx+ll5KNboZxleBj7lo41oYOToQyX5Ad/SlX2D2NqKXV9I4jnAd4Xt1lc7514tozv6QT4ZH8JNqncZFttGemLifjs4OW554+fEH+JUXsfCU2RPQKQ2iPKcAEN64y1tZpaMlQAbNq5o/duvubBI52dX+vU02rhl7FC8WtFmgXftsa0/d2FIg3IsKAOGNe61FwjmOvM2iYpglnOM44i1M9VAcCG/cM3DUmAK9QLixlkAqUAAU0CoAhGs1gRhQwD0KAOHu6UtoCSigVQAI12oCMaCAexQAwt3Tl9ASUECrABCu1QRiQAH3KACEu6cvoSWggFYBIFyrCcSAAu5RAAh3T19CS0ABrQJAuFYTiAEF3KMAEO6evoSWgAJaBYBwrSYQAwq4RwEg3D19CS0BBbQKAOFaTQzHPCmwv9jUM/aiNPOi+kmZ4XIgIShgWQFnEh64TDwZKf+/PGS5mZ05sacI58cjqdelCnF7VK2K5WJmWWMuQmW5vZQXrqjNvfmCAmv/vfg8atrg48BccrPmCU48KOXX5yxbv+hM17onVyC8HX2JUdebw2nmjX5nThN1NKBnJUJluX1KeKf6kTqyBZ2dr0Gu48WtWhXfJk1Bju3Ms6sfFC7/Cs4bOtL/Dia8O26MLKncE4TvlgvPotNDCFd+aDqOTbJWGTsTIxvIcnv1YzGFbb/zQ6EUAb6UniKqSGbYq+Xt+BTy4sa6T6pdBZoqOPe8WNxOhi4Q+/DDoWdFdF2BW5imwllKAITXlU1a1sqzWqPFZIuEExsvtfWznucjDntHOpBrUylmtWvsuk3ROxBIIaD3qK0osmVQYWdsjn+AXTqU0pMoBx43U9wX2Bl76jn2AbHbime3aO4jsis/rVdNiGtRASC8noDKTTJ5UVnaYIe3fG4rhAeSaq9IqCyVPwPi5ECuhPQp+V2QK2Hi03eBzM/MCvwsBr6UnpCz4YdCwh6iFzlneIJisS8H1tuhbyqRLRKXbFZnYHk1oWqvXAn4bFkBBxMub7PdvvPw+uzMmZP9LTfWVAZzmffl/LPoNFlM8n5pMckwUMvOOuF+7J+kKr5LkVWrPOJrrpE4jiOej6pizbvocDiZe5+j82+tJo1DuJ7S9UEspueZ7S3syEkkU/HAXHJb4UuNeDgkxqHxfM5PLKQKB1JO5CJgrjKs36jDcu5HzZ5f44bAUcMK9ADhklOExMNL1M+R4ea1NSH2T6I7WVkmnMyclVxUcRs7gr0aibklUn299bO1hrGEV6vVw3LujrwkwchVXsTjz4t0v72yJ4Q2kEFohvCCEBTyH+SbhY+lbCKeQ6ibXFCwhKMrhFjcULpstdZAOEujgDMJZ6vZf+Sk/0LwIeJ8Kfgpe6TDYf7Kg+x+WZRvj6UJq72EszMn0xyy2yxvzuMrS1tvU30XpuObZJaWvRcqkavsZyQPx/iiUP4V3SMrduM/luVHXOQCZJJwubH80EhovYCvKZXcTTkWPtungPMJx23tG8VPyG10aXQNuxhk16Ek3AnCX6ldnugQrnt30No4IB6IpevIJHKRiCbT97kk4+E89ALdZxMfTNjRYrV6WCk8i9RW1byAZvnWLkB+vI0P3s5b60/9s3uE8COTV1fWYsuhL/Rb0f5YMvrp7TEuoAOrdMIV42wYF0RW6dSZAd5qrpZSgTY3k6WX4yLYITEtFJclPR6T9tKJCxfxbZL1fk6esUk38FYryD/FVwm8UrCaB5ynr4DjCe/75PjA5KUF5Ksw/N0Z/UZ0IDa5hya0ynYEeyPyDYeT2X28a9zeOZybIk5RxH260xYS9nBBHzLSU2iOlybPSiG1NI3rw/uvxLMWdtpkoXwXJqS1sZiPy1sA0osoFckXOn0eXkP6LNn2F0ubqufhyuuCXIqRT35oZDqRLSGPEaW00g2zkdMhTVMFHEk4cVQm76WTnbaFf790sq9pc9qWwP9E7xmW4sUM/cdpdF8KVUW1s0XW+ej/2l0rP5+VHknVjqI9sAzzJhkX0PV8VMvEQLP13BirSuFDOlURC0lm7TCiJ0vZnCdjXd3gaZmBPrSUxPGE/yk5P3/jwpd20k2E9EWe1d6drpTyqYVIpsS+eqU7UvHMvym/gGmAcPQmyRX0pre0pXcolukuF9ujSs9H+m+Vs+nVYSXhH8vFbSGE329TJGTfvcE1iTJ445T8xHJGoctTs3vgSt3ESqrXk3UAAAmtSURBVGkvE/+OeW6nqBB8aVUBRxLeaqPgfFAAFJAUAMJhKIACblYACHdz70LbQAEgHMYAKOBmBYBwN/cutA0UAMJhDIACblYACHdz70LbQAEgHMYAKOBmBYBwN/cutA0UAMJhDIACblYACHdz70LbQAEgHMYAKOBmBYBwN/cutA0UAMLtGAP+R/i3qB8yIfnH2HaUCmWAAhwHhNsxCmQLZ9YtJdhRSyjDjQo4mvCjn09+O3//1jIy8BJbWXOc3zLDA6LpHB55XqqI5ew1wzmaT9guv2XNSkaGlmuOzer93L1ZLuj4wFT0WaGMLGHqXBl1XSOB4xStrk4lvM93jthXZSy99C7hWt1VMXiS1xnHqmStfJXXEawpGdN+ywxUQGlqgpQmFpJnDZxKkyCD7TWjzkA4FcZCwKGEf/EHZD75diQSGDp95IiFdvXYKXYQ3rrfMkOiJvNlhT25HDZSJVuGNpQF8ZRUrYqlzXQeGWPXufbhOVwn3lABXkrkSMKPX7q+sha7OWO/6SbS9djQqv7owShKtkfpIPMFhUJZchJQ3hMYs0ZKi0UaK476S00y7ykTq3z6Flp3x2veb5k1LkaeITPNxB6z0Ry+TxffZ7HBdiKgTl9Q8Y3m6dV0TiT86NfLsZXkxS+71icTv9QblBPIqriYJ274yCDLbaptNoq7NfulWdb1jxJajuMMEu5P5Il3MMUKe09h1diUWNb8lpkqAif2DYdTyLFoOWv1IQIQbl515RlOJHzwylpsZenCANpmu53A22zL9+cujR63zdbqowKy7ruB7YJjx0OV7QjWLYSIla3/1/g8kCwQ+25ia6XyJYCRGo9UDeE0QaNVOh/HDkDL+UchyZTyfDKPlr7mnYSwliHN+y2jtW0aYO/5xXfpEHJFbO2vMeG1Kx7yDMv6abBWmhvPciLhZ2alzXPJYxndbJu/dNSePphFDk+ICw7iUlfepMXbSLLPbUJ4ZfdBzQEIN41dpWjtHLdAeAIBXn4uW08nCizlUKRZFwIs4eb9lhnXniUcUfghp7HZajAzo4RLrMMbBxpdnUv4rT9e8/uO9aF5u/+Ib3L6zlps5f6YTVZ3ayTHd0XxXbFMNnuwixLqfIcQbmwPyTrh07/q2FOXBnTN+7emYxtGWPNb1jBL3YO+4dl49j3eoXgnsJ5SdFPrRdYlnE2MnJ89yuPnatXiuqVy2OzcFXYs4RG/ck3eN7xk4yNxPLCQq7Bo7qOYTyCPP2gWxe77KNL2EF67F6itSeWQVcLJGDbrt8zqyCdembTrGiP5GSKcZEScNNHrr5HcvZDGiYSfHL8fW3n47b8q9D8aWLaRcOxn82MuipAuJHkOwVBKT6BVbiU7L1XMHsKJ4xRpU0AhSatfzPots1oe3rxg3LyYycc44Ty5YJV+mTCTv/vTOpFwzhcMr6zFFm74P/0E9UDfJ8e/DF5PrMUSS367no3j0V/MvqhUyfIS3fdW8rularWUkl/eaCPhxDMZcoSo9UNyFjv3PEQ7bSPao5aGqEW/ZabL8g1PSm7YmOcLpnIxRLjvQii5TZwlt99/o6nqOjCxIwnnjp2ZxQ7D6R4bCjy8PHTMNgWJN8zajjpHNrRrj8rosy66aNepm2pnS15cs37LyFk83k6rHVc4SOPmnuveius8JdapgxSl96qZeb9l9fOXj+g22ewGmNKZOSsLVVu9mYcSVfJ/HpHrAZ+SAs4knOP6Tn4RiFxHu2trsUTyVvjGOZ99eCNt8GY1cog5KSklOQBl/Hg3n8N1hzsai9qbUn76ab50IL02g5IoHq0pvYVJQ74Fwq37LWtGjrLJYrmYWycP+ZqdyB43S3i95rB5ejXsVMK92h/QblCgvQoA4e3VE3IDBZylABDurP6A2oAC7VUACG+vnpAbKOAsBYBwZ/UH1AYUaK8CQHh79YTcQAFnKQCEO6s/oDagQHsVAMLbqyfkBgo4SwEg3Fn9AbUBBdqrABDeXj0hN1DAWQoA4c7qD6gNKNBeBYDw9uoJuYECzlIACLejP5p6RLCjElCGJxUAwu3odvmnjqZ+DWZHxaAM1yvgQMIHApE6lhh71rFR0zm8016NGpmCkg1LEhtV0i9Tax+WrkoNHRIZhapZJvx4PLNfFpHbo2r1sFJ6zVqqN1qI69MB4Y7oYjzJW2LJWPXtI9yAQ6LmVTaSyfcCssSu+rNumL15pXo0hQMJ11UST+zLkTN2WXHSrUTnIjtNuG7NMfZi4YlsnBTbXWjRkqERh0S6lWEjDWQyknqP4Bb3id0r3j+PXS9Uq6VflGan2Xw9Ge4Nwo9gQ6vzY9Yt65vqXA95NWItybSDcM6AQ6LmfdE0E2IE5kDhSoX/M/YcwRjhaV6QB1L0AuF9Z8aW1mLLoUGlfeXO9Y7rvRpxHB99VUFG5/7M12RsC+G17AwZUawl1w/pZ+LfQG6nGLOqvH9eKEjG7LQWsvSz9khsDxCO3ZitXQ/Y5AwBdbxbvRrRQf098r9W/ZBRrGjJxEjvbD9WSq9TkXHmEkBPNxTQh9PQqbVE+pmQ+4t8AqXzBZM54nRBqnkHtzNq9eqdkOMJ7zt/cXktdif0hV0TOOo7t3o1ksYl/2BXRBN4QkmvinACjMoeq4mRrQ+niQxQUv1MMOGV7HI8sy+7bDysFNZDqX19V8QmC3VVcqcTfnIsEVtZm/vaxgkc9a+rvRoRkktpxQSuGtW8fySczH/AlHfSIZGqWM3XBoTLi43DSvF5nLiOwxuW5cysJhsPRzib8COBy/ZP4Gg04IHlTq9G/uRbvQlcl4H5LJoi2d043WT6kfpw6qetG6ufCdkoqVbF0nZyrrb92opzlbo16PUDjib88+/ux1bWpofttZSOuxTNBm70asQv5RC071NGXAfwd5CHU+TOycow14fTZE51MrmJW6G89EhNs1hbk/XqneQOJvzI+HRiLbYU/NzOO3C551zq1Yg8Rq7klpR34HKra58Dw6FHOclR0IaRq0HtVDlUB075sLHPepmQ+GplT8B+oOjzcObxvrECXJ/KuYR/8Qfk2KgrEzjHca7zaoRGsuQ7qd4ErnRXQm5zK7sPzPGtu12H86IOiZpDZSATfj6rdfUkvk2aq23zqvR8CqcSfvzS9ZWuTeCoV93m1YjjuKkM2jmrP4GzhB+K5Xc5Yd7fbK7XAGAATs05mghjmfiCQr4k76WL5eLzKOCtkZJzKuHamkIMKAAKmFcACDevGZwBCvSOAkB47/QV1BQUMK8AEG5eMzgDFOgdBYDw3ukrqCkoYF4BINy8ZnAGKNA7CgDhvdNXUFNQwLwC/w/NcKXJS4kxzQAAAABJRU5ErkJggg==;" vertex="1" parent="1">
          <mxGeometry x="248" y="120" width="331" height="262" as="geometry" />
        </mxCell>
        <mxCell id="awfQtvuQGuNagkUYhMvE-3" value="" style="endArrow=classic;html=1;rounded=0;strokeWidth=5;strokeColor=#2AFF12;exitX=0;exitY=1;exitDx=0;exitDy=0;" edge="1" parent="1" source="awfQtvuQGuNagkUYhMvE-4">
          <mxGeometry width="50" height="50" relative="1" as="geometry">
            <mxPoint x="30" y="130" as="sourcePoint" />
            <mxPoint x="341" y="202.5461910878372" as="targetPoint" />
            <Array as="points">
              <mxPoint x="190" y="130" />
            </Array>
          </mxGeometry>
        </mxCell>
        <mxCell id="awfQtvuQGuNagkUYhMvE-5" value="" style="endArrow=classic;html=1;rounded=0;strokeWidth=5;strokeColor=#5228FF;exitX=0;exitY=1;exitDx=0;exitDy=0;" edge="1" parent="1">
          <mxGeometry width="50" height="50" relative="1" as="geometry">
            <mxPoint x="811" y="130" as="sourcePoint" />
            <mxPoint x="390" y="202.5461910878372" as="targetPoint" />
            <Array as="points">
              <mxPoint x="541" y="130" />
            </Array>
          </mxGeometry>
        </mxCell>
        <mxCell id="awfQtvuQGuNagkUYhMvE-8" value="" style="endArrow=none;html=1;rounded=0;strokeWidth=4;strokeColor=#009999;" edge="1" parent="1">
          <mxGeometry width="50" height="50" relative="1" as="geometry">
            <mxPoint x="-80" y="240" as="sourcePoint" />
            <mxPoint x="190" y="240" as="targetPoint" />
          </mxGeometry>
        </mxCell>
        <mxCell id="awfQtvuQGuNagkUYhMvE-9" value="" style="endArrow=classic;html=1;rounded=0;strokeWidth=4;strokeColor=light-dark(#009999, #ededed);" edge="1" parent="1">
          <mxGeometry width="50" height="50" relative="1" as="geometry">
            <mxPoint x="160" y="240" as="sourcePoint" />
            <mxPoint x="340" y="230" as="targetPoint" />
          </mxGeometry>
        </mxCell>
        <mxCell id="awfQtvuQGuNagkUYhMvE-10" value="" style="endArrow=classic;html=1;rounded=0;strokeWidth=4;strokeColor=light-dark(#009999, #ededed);" edge="1" parent="1">
          <mxGeometry width="50" height="50" relative="1" as="geometry">
            <mxPoint x="190" y="240" as="sourcePoint" />
            <mxPoint x="340" y="260" as="targetPoint" />
          </mxGeometry>
        </mxCell>
        <mxCell id="awfQtvuQGuNagkUYhMvE-11" value="" style="endArrow=classic;html=1;rounded=0;strokeWidth=4;strokeColor=light-dark(#009999, #ededed);" edge="1" parent="1">
          <mxGeometry width="50" height="50" relative="1" as="geometry">
            <mxPoint x="190" y="240" as="sourcePoint" />
            <mxPoint x="340" y="310" as="targetPoint" />
          </mxGeometry>
        </mxCell>
        <mxCell id="awfQtvuQGuNagkUYhMvE-13" value="" style="endArrow=classic;html=1;rounded=0;strokeWidth=4;strokeColor=#FF0000;" edge="1" parent="1">
          <mxGeometry width="50" height="50" relative="1" as="geometry">
            <mxPoint x="800" y="290" as="sourcePoint" />
            <mxPoint x="420" y="290" as="targetPoint" />
          </mxGeometry>
        </mxCell>
        <mxCell id="awfQtvuQGuNagkUYhMvE-15" value="" style="shape=curlyBracket;whiteSpace=wrap;html=1;rounded=1;labelPosition=left;verticalLabelPosition=middle;align=right;verticalAlign=middle;strokeColor=#FFFF99;strokeWidth=3;" vertex="1" parent="1">
          <mxGeometry x="270" y="340" width="20" height="30" as="geometry" />
        </mxCell>
        <mxCell id="awfQtvuQGuNagkUYhMvE-16" value="" style="endArrow=none;html=1;rounded=0;strokeWidth=4;strokeColor=#CCCC00;entryX=0.1;entryY=0.5;entryDx=0;entryDy=0;entryPerimeter=0;" edge="1" parent="1" target="awfQtvuQGuNagkUYhMvE-15">
          <mxGeometry width="50" height="50" relative="1" as="geometry">
            <mxPoint x="-80" y="355" as="sourcePoint" />
            <mxPoint x="260" y="360" as="targetPoint" />
          </mxGeometry>
        </mxCell>
      </root>
    </mxGraphModel>
  </diagram>
</mxfile>
